<svg width="160" height="54" viewBox="0 0 160 54" fill="none" xmlns="http://www.w3.org/2000/svg">
<g clip-path="url(#clip0_120_1497)">
<path d="M119.097 32.8986H123.273V11.7015L119.097 12.0739V32.8986ZM121.172 3.08374C120.793 3.08347 120.419 3.15867 120.07 3.30492C119.721 3.45118 119.405 3.66556 119.14 3.93551C118.875 4.20547 118.666 4.52558 118.527 4.8771C118.387 5.22862 118.319 5.60449 118.326 5.98272C118.326 6.73748 118.626 7.46134 119.159 7.99504C119.693 8.52874 120.417 8.82857 121.172 8.82857C121.926 8.82857 122.65 8.52874 123.184 7.99504C123.718 7.46134 124.018 6.73748 124.018 5.98272C123.991 4.3868 122.741 3.08374 121.172 3.08374ZM155.135 11.701L149.124 25.6639L142.715 11.7015H134.39V9.86634C134.39 7.68538 135.401 6.78109 137.475 6.78109C138.193 6.79389 138.908 6.89209 139.603 7.07361L140.534 3.74914C139.213 3.30956 137.829 3.09386 136.437 3.11097C132.394 3.11097 130.214 5.74399 130.214 9.57382V11.7015L126.65 11.994V15.3459H130.214V32.8986H134.389V15.3186H139.841L147.075 30.3987C146.463 31.7285 145.719 33.218 144.548 34.1223C143.511 34.9467 142.181 35.0264 140.905 34.7605L139.921 38.1915C141.809 38.883 144.176 38.8031 145.932 37.8457C147.846 36.7819 149.122 34.7872 149.974 32.8191L159.55 11.6216H155.108V11.7015L155.135 11.701ZM105.267 29.7337C101.783 29.7071 98.8575 26.8347 98.8575 22.2868C98.8575 17.7123 101.756 14.8664 105.267 14.8133C108.751 14.8398 111.677 17.7123 111.677 22.2868C111.677 26.8347 108.751 29.7337 105.267 29.7337ZM105.267 11.1164C104.069 11.1049 102.881 11.3317 101.771 11.7838C100.662 12.2358 99.6532 12.904 98.8044 13.7495V3.69601L94.8952 4.04182V32.9252H98.8044V30.8773C99.6533 31.7228 100.662 32.391 101.771 32.843C102.881 33.295 104.069 33.5219 105.267 33.5104C111.172 33.4838 115.693 28.8294 115.693 22.3134C115.693 15.7974 111.144 11.1694 105.267 11.1164ZM59.6015 14.8664C61.8889 14.893 63.9634 16.2495 65.081 18.3245L68.4588 16.2234C67.5707 14.661 66.2816 13.3639 64.7247 12.4662C63.1677 11.5685 61.3993 11.1027 59.6022 11.1169C53.6716 11.1435 49.1765 15.7979 49.1765 22.3139C49.1765 28.8299 53.6704 33.4577 59.6022 33.5109C61.4004 33.5307 63.171 33.0673 64.729 32.1691C66.2869 31.2708 67.5751 29.9706 68.4588 28.4044L65.081 26.3033C63.9641 28.4044 61.8902 29.7614 59.6015 29.7614C56.1175 29.7337 53.1916 26.8612 53.1916 22.2868C53.1916 17.7124 56.1175 14.893 59.6015 14.8664ZM80.4795 29.7337C76.9955 29.7071 74.0698 26.8347 74.0698 22.2868C74.0698 17.7123 76.9689 14.8664 80.4795 14.8133C83.9637 14.8398 86.8892 17.7123 86.8892 22.2868C86.8627 26.8347 83.9639 29.7337 80.4795 29.7337ZM86.9424 13.7495C86.0935 12.904 85.085 12.2358 83.9754 11.7838C82.8659 11.3317 81.6775 11.1049 80.4795 11.1164C74.5752 11.143 70.0539 15.7974 70.0539 22.3134C70.0539 28.8294 74.5478 33.4572 80.4795 33.5104C81.6775 33.5219 82.8659 33.295 83.9754 32.843C85.0849 32.391 86.0935 31.7228 86.9424 30.8773V32.9252H90.8515V11.6749L86.9424 12.0207V13.7495ZM14.255 30.2392L22.0744 38.1648L29.8927 30.2392C30.2328 29.8978 30.6369 29.6269 31.0819 29.442C31.5269 29.2572 32.004 29.1621 32.4859 29.1621C32.9678 29.1621 33.4449 29.2572 33.8899 29.442C34.3349 29.6269 34.739 29.8978 35.0791 30.2392C35.7694 30.9417 36.1562 31.8872 36.1562 32.8722C36.1562 33.8571 35.7694 34.8027 35.0791 35.5052L22.1001 48.6703L9.06884 35.505C5.62565 31.9879 3.69708 27.262 3.69639 22.34C3.69639 12.0739 11.9145 3.72258 22.0476 3.72258C24.4645 3.72551 26.8566 4.20904 29.0847 5.14505C31.3129 6.08106 33.3327 7.45085 35.0266 9.17471C35.717 9.87724 36.1038 10.8228 36.1038 11.8077C36.1038 12.7927 35.717 13.7382 35.0266 14.4407C34.6866 14.7821 34.2825 15.053 33.8375 15.2379C33.3925 15.4227 32.9154 15.5179 32.4335 15.5179C31.9517 15.5179 31.4746 15.4227 31.0296 15.2379C30.5846 15.053 30.1805 14.7821 29.8404 14.4407C28.8199 13.4031 27.6028 12.5794 26.2602 12.0177C24.9176 11.456 23.4765 11.1676 22.0211 11.1694C15.9306 11.1694 10.9837 16.1695 10.9837 22.3664C11.0145 25.315 12.1871 28.1369 14.255 30.239V30.2392ZM22.0476 14.8664C23.0131 14.8711 23.9681 15.0661 24.8581 15.4403C25.748 15.8146 26.5554 16.3607 27.234 17.0474C27.9135 17.7361 28.723 18.2829 29.6156 18.6562C30.5082 19.0294 31.4661 19.2216 32.4335 19.2216C33.401 19.2216 34.3589 19.0294 35.2514 18.6562C36.144 18.2829 36.9536 17.7361 37.6331 17.0474C39.0019 15.6361 39.7674 13.7474 39.7674 11.7813C39.7674 9.81531 39.0019 7.92654 37.6331 6.5153C35.5921 4.45668 33.1647 2.82141 30.4901 1.70334C27.8156 0.585266 24.9465 0.00641197 22.0476 5.23207e-08C9.89328 -0.000835243 4.86778e-05 9.99998 4.86778e-05 22.34C-0.0122608 28.252 2.31045 33.9298 6.46289 38.1381L22.0476 53.9365L37.6331 38.1384C39.0019 36.7272 39.7675 34.8384 39.7675 32.8724C39.7675 30.9063 39.0019 29.0175 37.6331 27.6063C36.9536 26.9176 36.144 26.3708 35.2514 25.9975C34.3589 25.6243 33.401 25.4321 32.4335 25.4321C31.4661 25.4321 30.5082 25.6243 29.6156 25.9975C28.723 26.3708 27.9135 26.9176 27.234 27.6063L22.0476 32.8989L16.8615 27.6063C15.4897 26.1976 14.7257 24.3066 14.7338 22.3403C14.7168 21.3676 14.8932 20.4012 15.2527 19.4972C15.6122 18.5932 16.1478 17.7696 16.8282 17.0743C17.5086 16.379 18.3204 15.8257 19.2164 15.4467C20.1124 15.0677 21.0748 14.8704 22.0476 14.8664Z" fill="white"/>
</g>
<defs>
<clipPath id="clip0_120_1497">
<rect width="159.55" height="53.937" fill="white" transform="translate(0.119141)"/>
</clipPath>
</defs>
</svg>
